<?xml version="1.0" encoding="utf-8"?>
<!-- Generator: Adobe Illustrator 19.2.1, SVG Export Plug-In . SVG Version: 6.00 Build 0)  -->
<svg version="1.1" id="Layer_1" xmlns="http://www.w3.org/2000/svg" xmlns:xlink="http://www.w3.org/1999/xlink" x="0px" y="0px"
	 viewBox="0 0 58 62" style="enable-background:new 0 0 58 62;" xml:space="preserve">
<style type="text/css">
	.st0{fill:#526E6E;}
	.st1{fill:#84A4AD;}
	.st2{fill:#462B15;}
	.st3{fill:#5B422A;}
	.st4{fill:#4E3219;}
	.st5{fill:#DCBEA0;}
	.st6{fill:#C19D81;}
	.st7{fill:#E6D2BF;}
	.st8{fill:#B0876E;}
	.st9{fill:#DAD5C1;}
	.st10{fill:#FEE32B;}
	.st11{fill:#DAB44C;}
	.st12{fill:#623E22;}
	.st13{fill:#635C4F;}
	.st14{fill:#342B1B;}
</style>
<g>
	<rect x="12.5" y="25.6" class="st0" width="33.6" height="15.9"/>
	<rect x="12.5" y="38.8" class="st1" width="32.1" height="3.6"/>
	<polygon class="st2" points="44.6,17.6 36.1,29.1 56,29.1 	"/>
	<polygon class="st3" points="1,29.1 20.9,29.1 12.5,17.6 	"/>
	<rect x="12.5" y="17.6" class="st4" width="32.1" height="11.5"/>
	<rect x="1" y="29.1" class="st5" width="11.5" height="17.7"/>
	<rect x="44.6" y="29.1" class="st6" width="11.5" height="17.7"/>
	<circle class="st7" cx="6.7" cy="46.8" r="5.7"/>
	<circle class="st5" cx="50.3" cy="46.8" r="5.7"/>
	<polygon class="st3" points="12.5,29.1 6.7,34.8 1,29.1 6.7,27 	"/>
	<polygon class="st4" points="23.9,29.1 18.2,34.8 12.5,29.1 18.2,27 	"/>
	<polygon class="st4" points="44.6,29.1 38.8,34.8 33.1,29.1 38.8,27 	"/>
	<polygon class="st2" points="56,29.1 50.3,34.8 44.6,29.1 50.3,27 	"/>
	<g>
		<rect x="27.2" y="10.4" class="st6" width="8.9" height="9.3"/>
		<rect x="20.9" y="10.4" class="st5" width="7.6" height="9.3"/>
		<rect x="20.9" y="10.4" class="st6" width="7.6" height="5"/>
		<rect x="28.5" y="10.4" class="st8" width="7.6" height="5"/>
		<polygon class="st9" points="40,7.2 17,7.2 13,1 14,10.4 15,10.4 42,10.4 43,10.4 44.1,1 		"/>
		<path class="st0" d="M28.5,4.7c-4.8,0-8.7,3.9-8.7,8.7h17.4C37.2,8.6,33.3,4.7,28.5,4.7z"/>
		<polygon class="st1" points="30.4,16.1 28.5,17.6 26.6,16.1 26.6,3.9 30.4,3.9 		"/>
		<rect x="19.8" y="10.4" class="st1" width="17.4" height="3.2"/>
		<polygon class="st10" points="36.1,37.1 28.5,42.4 20.9,37.1 20.9,19.7 36.1,19.7 		"/>
		<rect x="26.6" y="22.3" class="st11" width="3.8" height="1.8"/>
	</g>
	<polygon class="st12" points="12.5,42.4 12.5,56.5 23.1,56.5 28.5,51 33.9,56.5 44.6,56.5 44.6,42.4 	"/>
	<path class="st13" d="M18.2,50.7c-3.2,0-5.7,2.6-5.7,5.7h11.5C23.9,53.3,21.4,50.7,18.2,50.7z"/>
	<rect x="12.5" y="56.5" class="st14" width="11.5" height="3.3"/>
	<path class="st13" d="M38.8,50.7c-3.2,0-5.7,2.6-5.7,5.7h11.5C44.6,53.3,42,50.7,38.8,50.7z"/>
	<rect x="33.1" y="56.5" class="st14" width="11.5" height="3.3"/>
</g>
</svg>
